<svg width="103" height="103" viewBox="0 0 103 103" fill="none" xmlns="http://www.w3.org/2000/svg">
<g id="mingcute:arrow-up-fill" clip-path="url(#clip0_408_670)">
<g id="Group">
<path id="Vector" d="M56.0493 14.0897C54.8423 12.8842 53.2061 12.207 51.5001 12.207C49.7942 12.207 48.158 12.8842 46.951 14.0897L22.6644 38.3634C21.4568 39.571 20.7783 41.209 20.7783 42.9168C20.7783 44.6247 21.4568 46.2626 22.6644 47.4703C23.8721 48.6779 25.51 49.3564 27.2179 49.3564C28.9258 49.3564 30.5637 48.6779 31.7713 47.4703L45.0626 34.1833V83.6877C45.0626 85.395 45.7409 87.0324 46.9481 88.2397C48.1554 89.4469 49.7928 90.1252 51.5001 90.1252C53.2075 90.1252 54.8449 89.4469 56.0521 88.2397C57.2594 87.0324 57.9376 85.395 57.9376 83.6877V34.1833L71.2246 47.4703C71.8226 48.0683 72.5325 48.5426 73.3138 48.8662C74.0951 49.1898 74.9324 49.3564 75.7781 49.3564C76.6237 49.3564 77.4611 49.1898 78.2424 48.8662C79.0237 48.5426 79.7336 48.0683 80.3316 47.4703C80.9295 46.8723 81.4038 46.1624 81.7275 45.3811C82.0511 44.5999 82.2177 43.7625 82.2177 42.9168C82.2177 42.0712 82.0511 41.2338 81.7275 40.4525C81.4038 39.6712 80.9295 38.9613 80.3316 38.3634L56.0493 14.0897Z" fill="#581082"/>
</g>
</g>
<defs>
<clipPath id="clip0_408_670">
<rect width="103" height="103" fill="white"/>
</clipPath>
</defs>
</svg>
