<svg width="77" height="77" viewBox="0 0 77 77" fill="none" xmlns="http://www.w3.org/2000/svg">
<path d="M43.3128 70.2234C58.7481 67.9005 70.5837 54.5827 70.5837 38.4993C70.5837 20.7797 56.22 6.41602 38.5003 6.41602C20.7807 6.41602 6.41699 20.7797 6.41699 38.4993C6.41699 54.5827 18.2525 67.9037 33.6878 70.2234V48.1243H28.8753C27.599 48.1243 26.3749 47.6173 25.4724 46.7148C24.5699 45.8123 24.0628 44.5882 24.0628 43.3118C24.0628 42.0355 24.5699 40.8114 25.4724 39.9089C26.3749 39.0064 27.599 38.4993 28.8753 38.4993H33.6878V32.0827C33.6878 29.1045 34.8709 26.2483 36.9768 24.1425C39.0827 22.0366 41.9388 20.8535 44.917 20.8535H46.5212C47.7975 20.8535 49.0216 21.3605 49.9241 22.2631C50.8266 23.1656 51.3337 24.3897 51.3337 25.666C51.3337 26.9424 50.8266 28.1664 49.9241 29.069C49.0216 29.9715 47.7975 30.4785 46.5212 30.4785H44.917C44.4915 30.4785 44.0835 30.6475 43.7827 30.9484C43.4818 31.2492 43.3128 31.6572 43.3128 32.0827V38.4993H48.1253C49.4017 38.4993 50.6258 39.0064 51.5283 39.9089C52.4308 40.8114 52.9378 42.0355 52.9378 43.3118C52.9378 44.5882 52.4308 45.8123 51.5283 46.7148C50.6258 47.6173 49.4017 48.1243 48.1253 48.1243H43.3128V70.2234Z" fill="#581082"/>
</svg>
