<svg width="1703" height="1618" viewBox="0 0 1703 1618" fill="none" xmlns="http://www.w3.org/2000/svg">
<g clip-path="url(#clip0_593_1552)">
<path d="M0 311.2L22.7361 298.193C45.4722 285.672 90.9444 258.929 136.417 259.293C181.889 258.929 227.361 285.672 272.833 291.75C318.306 297.829 363.778 285.672 409.25 252.85C454.722 220.029 500.194 168.972 545.667 136.15C591.139 103.329 636.611 91.1723 682.083 90.8076C727.556 91.1723 773.028 103.329 818.5 116.7C863.972 130.072 909.444 142.229 954.917 175.05C1000.39 207.872 1045.86 258.929 1091.33 239.843C1136.81 220.029 1182.28 130.072 1227.75 123.143C1273.22 116.7 1318.69 194.5 1364.17 220.393C1409.64 246.772 1455.11 220.029 1500.58 194.5C1546.06 168.972 1591.53 142.229 1614.26 129.708L1637 116.7V389H1614.26C1591.53 389 1546.06 389 1500.58 389C1455.11 389 1409.64 389 1364.17 389C1318.69 389 1273.22 389 1227.75 389C1182.28 389 1136.81 389 1091.33 389C1045.86 389 1000.39 389 954.917 389C909.444 389 863.972 389 818.5 389C773.028 389 727.556 389 682.083 389C636.611 389 591.139 389 545.667 389C500.194 389 454.722 389 409.25 389C363.778 389 318.306 389 272.833 389C227.361 389 181.889 389 136.417 389C90.9444 389 45.4722 389 22.7361 389H0V311.2Z" fill="#CBFFC4"/>
</g>
<g clip-path="url(#clip1_593_1552)">
<path d="M1636.34 1295.9L1613.6 1309.31C1590.87 1322.22 1545.39 1349.79 1499.95 1349.37C1454.5 1349.71 1409.08 1322.05 1363.65 1315.73C1318.21 1309.41 1272.75 1321.92 1227.27 1355.77C1181.79 1389.62 1136.3 1442.3 1090.82 1476.15C1045.34 1510 999.886 1522.51 954.44 1522.84C908.995 1522.42 863.562 1509.82 818.13 1495.97C772.698 1482.12 727.264 1469.52 681.852 1435.59C636.439 1401.65 591.044 1348.88 545.58 1368.55C500.115 1388.97 454.581 1481.82 409.129 1488.93C363.677 1495.54 318.309 1415.15 272.889 1388.37C227.469 1361.09 181.998 1388.66 136.527 1414.98C91.0571 1441.3 45.5855 1468.87 22.8505 1481.78L0.115063 1495.19L0.383175 1214L23.1058 1214.02C45.8284 1214.04 91.2737 1214.09 136.719 1214.13C182.164 1214.17 227.61 1214.22 273.055 1214.26C318.5 1214.3 363.945 1214.35 409.391 1214.39C454.836 1214.43 500.281 1214.48 545.726 1214.52C591.172 1214.56 636.617 1214.61 682.062 1214.65C727.507 1214.69 772.953 1214.74 818.398 1214.78C863.843 1214.82 909.288 1214.87 954.734 1214.91C1000.18 1214.95 1045.62 1215 1091.07 1215.04C1136.51 1215.08 1181.96 1215.13 1227.41 1215.17C1272.85 1215.21 1318.3 1215.26 1363.74 1215.3C1409.19 1215.34 1454.63 1215.39 1500.08 1215.43C1545.52 1215.47 1590.97 1215.52 1613.69 1215.54L1636.41 1215.56L1636.34 1295.9Z" fill="#CBFFC4"/>
</g>
<rect y="389" width="1637" height="837" fill="#CBFFC4"/>
<defs>
<clipPath id="clip0_593_1552">
<rect width="1637" height="389" fill="white"/>
</clipPath>
<clipPath id="clip1_593_1552">
<rect width="1636.03" height="401.701" fill="white" transform="translate(1636.03 1617.26) rotate(-179.945)"/>
</clipPath>
</defs>
</svg>
