<svg width="1703" height="1617" viewBox="0 0 1703 1617" fill="none" xmlns="http://www.w3.org/2000/svg">
<g clip-path="url(#clip0_568_1142)">
<path d="M0 311.2L22.7361 298.193C45.4722 285.672 90.9444 258.929 136.417 259.293C181.889 258.929 227.361 285.672 272.833 291.75C318.306 297.829 363.778 285.672 409.25 252.85C454.722 220.029 500.194 168.972 545.667 136.15C591.139 103.329 636.611 91.1723 682.083 90.8076C727.556 91.1723 773.028 103.329 818.5 116.7C863.972 130.072 909.444 142.229 954.917 175.05C1000.39 207.872 1045.86 258.929 1091.33 239.843C1136.81 220.029 1182.28 130.072 1227.75 123.143C1273.22 116.7 1318.69 194.5 1364.17 220.393C1409.64 246.772 1455.11 220.029 1500.58 194.5C1546.06 168.972 1591.53 142.229 1614.26 129.708L1637 116.7V389H1614.26C1591.53 389 1546.06 389 1500.58 389C1455.11 389 1409.64 389 1364.17 389C1318.69 389 1273.22 389 1227.75 389C1182.28 389 1136.81 389 1091.33 389C1045.86 389 1000.39 389 954.917 389C909.444 389 863.972 389 818.5 389C773.028 389 727.556 389 682.083 389C636.611 389 591.139 389 545.667 389C500.194 389 454.722 389 409.25 389C363.778 389 318.306 389 272.833 389C227.361 389 181.889 389 136.417 389C90.9444 389 45.4722 389 22.7361 389H0V311.2Z" fill="#CBFFC4"/>
</g>
<g clip-path="url(#clip1_568_1142)">
<path d="M1702.27 1294.94L1678.98 1308.35C1655.69 1321.26 1609.11 1348.83 1562.56 1348.41C1516 1348.74 1469.48 1321.08 1422.93 1314.76C1376.38 1308.44 1329.81 1320.95 1283.22 1354.79C1236.64 1388.64 1190.03 1441.32 1143.45 1475.17C1096.86 1509.02 1050.29 1521.53 1003.74 1521.86C957.183 1521.44 910.64 1508.84 864.099 1494.99C817.557 1481.14 771.015 1468.54 724.493 1434.6C677.97 1400.66 631.466 1347.9 584.892 1367.56C538.318 1387.98 491.675 1480.83 445.114 1487.94C398.553 1494.55 352.075 1414.16 305.546 1387.38C259.017 1360.09 212.436 1387.67 165.856 1413.98C119.276 1440.3 72.6955 1467.87 49.4059 1480.78L26.1157 1494.19L26.3838 1213L49.6612 1213.02C72.9385 1213.04 119.493 1213.09 166.048 1213.13C212.602 1213.18 259.157 1213.22 305.712 1213.27C352.266 1213.31 398.821 1213.36 445.375 1213.4C491.93 1213.44 538.485 1213.49 585.039 1213.53C631.594 1213.58 678.149 1213.62 724.703 1213.67C771.258 1213.71 817.812 1213.75 864.367 1213.8C910.922 1213.84 957.476 1213.89 1004.03 1213.93C1050.59 1213.98 1097.14 1214.02 1143.69 1214.07C1190.25 1214.11 1236.8 1214.15 1283.36 1214.2C1329.91 1214.24 1376.47 1214.29 1423.02 1214.33C1469.58 1214.38 1516.13 1214.42 1562.69 1214.47C1609.24 1214.51 1655.8 1214.55 1679.07 1214.58L1702.35 1214.6L1702.27 1294.94Z" fill="#CBFFC4"/>
</g>
<rect x="73" y="389" width="1581" height="837" fill="#CBFFC4"/>
<defs>
<clipPath id="clip0_568_1142">
<rect width="1637" height="389" fill="white"/>
</clipPath>
<clipPath id="clip1_568_1142">
<rect width="1675.97" height="401.701" fill="white" transform="translate(1701.97 1616.3) rotate(-179.945)"/>
</clipPath>
</defs>
</svg>
