<svg width="77" height="77" viewBox="0 0 77 77" fill="none" xmlns="http://www.w3.org/2000/svg">
<path d="M43.6652 39.28C43.6458 40.2963 43.3251 41.2841 42.7437 42.1179C42.1624 42.9518 41.3465 43.5943 40.3996 43.964C39.4526 44.3337 38.4173 44.4139 37.4247 44.1945C36.4321 43.975 35.527 43.4659 34.8242 42.7315C34.1213 41.9971 33.6523 41.0705 33.4767 40.0693C33.301 39.068 33.4265 38.0372 33.8374 37.1074C34.2483 36.1776 34.9259 35.3907 35.7845 34.8465C36.6431 34.3022 37.6439 34.0252 38.6602 34.0504C40.0105 34.1004 41.2884 34.6744 42.2227 35.6507C43.157 36.6269 43.6744 37.9287 43.6652 39.28Z" fill="#581082"/>
<path d="M47.3647 23.2051H29.9595C28.2373 23.2051 26.5856 23.8892 25.3678 25.107C24.15 26.3248 23.4658 27.9765 23.4658 29.6987V47.4954C23.4658 48.3481 23.6338 49.1925 23.9601 49.9804C24.2865 50.7682 24.7648 51.4841 25.3678 52.0871C25.9708 52.6901 26.6866 53.1684 27.4745 53.4947C28.2623 53.8211 29.1067 53.989 29.9595 53.989H47.3647C48.2175 53.989 49.0619 53.8211 49.8497 53.4947C50.6376 53.1684 51.3534 52.6901 51.9564 52.0871C52.5594 51.4841 53.0377 50.7682 53.3641 49.9804C53.6904 49.1925 53.8584 48.3481 53.8584 47.4954V29.7308C53.8617 28.8756 53.6963 28.0281 53.3716 27.237C53.0468 26.4458 52.5691 25.7265 51.9659 25.1202C51.3626 24.514 50.6457 24.0328 49.8561 23.7042C49.0666 23.3755 48.2199 23.2059 47.3647 23.2051ZM38.6605 47.983C36.9375 48.0219 35.242 47.5466 33.7904 46.6176C32.3387 45.6887 31.1968 44.3482 30.5103 42.7674C29.8238 41.1866 29.6239 39.4371 29.9361 37.7422C30.2483 36.0473 31.0584 34.4839 32.2631 33.2514C33.4677 32.0189 35.0123 31.1733 36.6997 30.8225C38.387 30.4717 40.1406 30.6317 41.7367 31.2819C43.3327 31.9321 44.6988 33.0432 45.6607 34.4732C46.6225 35.9033 47.1365 37.5875 47.1369 39.3109C47.1509 40.4372 46.9426 41.5552 46.524 42.6009C46.1054 43.6466 45.4846 44.5995 44.6973 45.405C43.91 46.2105 42.9715 46.8528 41.9356 47.2952C40.8998 47.7376 39.7868 47.9713 38.6605 47.983ZM48.0802 30.642C47.8684 30.642 47.6589 30.5998 47.4637 30.5179C47.2685 30.4359 47.0916 30.3158 46.9434 30.1646C46.7952 30.0134 46.6787 29.8342 46.6006 29.6374C46.5226 29.4406 46.4846 29.2302 46.4888 29.0186C46.4888 28.588 46.6599 28.1751 46.9643 27.8707C47.2688 27.5662 47.6817 27.3952 48.1122 27.3952C48.5428 27.3952 48.9557 27.5662 49.2602 27.8707C49.5646 28.1751 49.7357 28.588 49.7357 29.0186C49.742 29.2478 49.6988 29.4756 49.6089 29.6866C49.5191 29.8975 49.3847 30.0865 49.215 30.2407C49.0453 30.3949 48.8442 30.5105 48.6257 30.5798C48.4071 30.6491 48.1761 30.6703 47.9486 30.642H48.0802Z" fill="#581082"/>
<path d="M38.6602 6.41642C30.1511 6.37387 21.9737 9.71327 15.9268 15.7C9.87996 21.6867 6.45896 29.8303 6.41642 38.3393C6.37387 46.8484 9.71327 55.0258 15.7 61.0727C21.6867 67.1195 29.8303 70.5405 38.3393 70.5831C42.5526 70.6042 46.7287 69.7951 50.6293 68.2023C54.5299 66.6094 58.0786 64.2638 61.0727 61.2995C64.0668 58.3352 66.4477 54.8102 68.0795 50.9257C69.7113 47.0412 70.562 42.8734 70.5831 38.6602C70.6042 34.4469 69.7951 30.2708 68.2023 26.3702C66.6094 22.4696 64.2638 18.9209 61.2995 15.9268C58.3352 12.9327 54.8102 10.5518 50.9257 8.92C47.0412 7.2882 42.8734 6.43748 38.6602 6.41642ZM58.1444 47.1687C58.1533 48.608 57.8765 50.0349 57.3299 51.3664C56.7833 52.698 55.9778 53.9078 54.9601 54.9258C53.9425 55.9437 52.7329 56.7496 51.4015 57.2965C50.0701 57.8435 48.6433 58.1208 47.204 58.1123H30.1228C28.6834 58.1212 27.2566 57.8444 25.925 57.2978C24.5935 56.7512 23.3836 55.9457 22.3657 54.928C21.3477 53.9104 20.5419 52.7008 19.9949 51.3694C19.4479 50.038 19.1706 48.6112 19.1792 47.1719V30.0875C19.1702 28.6481 19.4471 27.2213 19.9937 25.8897C20.5403 24.5582 21.3458 23.3483 22.3634 22.3304C23.3811 21.3124 24.5907 20.5066 25.9221 19.9596C27.2535 19.4126 28.6802 19.1354 30.1196 19.1439H47.204C48.6431 19.1354 50.0695 19.4125 51.4007 19.9593C52.7319 20.5061 53.9414 21.3117 54.959 22.3293C55.9766 23.3469 56.7821 24.5563 57.3289 25.8875C57.8757 27.2187 58.1529 28.6452 58.1444 30.0843V47.1687Z" fill="#581082"/>
</svg>
