<svg width="1600" height="1201" viewBox="0 0 1600 1201" fill="none" xmlns="http://www.w3.org/2000/svg">
<g clip-path="url(#clip0_568_1020)">
<path d="M1221.97 342.129C1301.63 387.676 1363.49 459.302 1351.01 527.916C1338.34 596.994 1252.34 663.795 1190.12 728.824C1128.5 793.989 1091.25 857.517 1026.65 908.233C962.05 958.949 870.09 996.852 771.771 1006.79C672.853 1016.59 567.175 999.35 517.489 945.269C467.603 891.652 473.709 801.192 445.226 728.43C416.743 655.668 353.272 600.003 341.561 537.152C329.85 474.301 369.5 403.663 429.525 337.627C488.75 271.921 569.149 210.488 658.68 198.057C748.21 185.626 847.67 221.868 946.142 249.723C1044.61 277.578 1142.3 296.582 1221.97 342.129Z" fill="#FAF1FF"/>
</g>
<defs>
<clipPath id="clip0_568_1020">
<rect width="1228.72" height="1012.6" fill="white" transform="matrix(0.975426 0.220329 -0.395784 0.918344 400.77 0)"/>
</clipPath>
</defs>
</svg>
