<svg width="1729" height="1514" viewBox="0 0 1729 1514" fill="none" xmlns="http://www.w3.org/2000/svg">
<path d="M1042.79 323.856C1112.28 358.142 1140.23 451.472 1201.89 519.416C1264.11 586.604 1359.89 627.841 1394.33 693.941C1428.61 759.473 1401.39 849.302 1343.43 921.225C1285.47 993.148 1196.05 1047.36 1103.07 1102.51C1010.08 1157.67 913.535 1213.78 814.765 1224.34C715.995 1234.9 615.718 1199.72 556.477 1140.84C496.523 1082.16 476.74 999.401 416.94 921.246C356.275 842.714 255.593 768.785 268.393 702.23C282.057 636.05 409.917 577.054 509.578 518.293C609.24 459.533 681.266 400.251 772.434 358.327C863.451 315.836 973.458 290.136 1042.79 323.856Z" fill="#E9C3FF"/>
<g clip-path="url(#clip0_593_1620)">
<path d="M1243.97 499.129C1323.63 544.676 1385.49 616.302 1373.01 684.916C1360.34 753.994 1274.34 820.795 1212.12 885.824C1150.5 950.989 1113.25 1014.52 1048.65 1065.23C984.05 1115.95 892.09 1153.85 793.771 1163.79C694.853 1173.59 589.175 1156.35 539.489 1102.27C489.603 1048.65 495.709 958.192 467.226 885.43C438.743 812.668 375.272 757.003 363.561 694.152C351.85 631.301 391.5 560.663 451.525 494.627C510.75 428.921 591.149 367.488 680.68 355.057C770.21 342.626 869.67 378.868 968.142 406.723C1066.61 434.578 1164.3 453.582 1243.97 499.129Z" fill="#FAF1FF"/>
</g>
<defs>
<clipPath id="clip0_593_1620">
<rect width="1228.72" height="1012.6" fill="white" transform="matrix(0.975426 0.220329 -0.395784 0.918344 422.77 157)"/>
</clipPath>
</defs>
</svg>
