<svg width="1509" height="1468" viewBox="0 0 1509 1468" fill="none" xmlns="http://www.w3.org/2000/svg">
<path d="M0 91.0374L25.15 65.1445C50.3 38.7655 100.6 -12.2908 150.9 13.2374C201.2 38.7655 251.5 143.309 301.8 207.737C352.1 272.165 402.4 298.909 452.7 291.98C503 285.537 553.3 246.637 603.6 246.637C653.9 246.637 704.2 285.537 754.5 291.98C804.8 298.909 855.1 272.165 905.4 253.08C955.7 233.265 1006 221.109 1056.3 175.28C1106.6 129.937 1156.9 52.1374 1207.2 19.6802C1257.5 -12.2908 1307.8 -0.134503 1358.1 19.6802C1408.4 38.7655 1458.7 65.5092 1483.85 78.0302L1509 91.0374V324.437H1483.85C1458.7 324.437 1408.4 324.437 1358.1 324.437C1307.8 324.437 1257.5 324.437 1207.2 324.437C1156.9 324.437 1106.6 324.437 1056.3 324.437C1006 324.437 955.7 324.437 905.4 324.437C855.1 324.437 804.8 324.437 754.5 324.437C704.2 324.437 653.9 324.437 603.6 324.437C553.3 324.437 503 324.437 452.7 324.437C402.4 324.437 352.1 324.437 301.8 324.437C251.5 324.437 201.2 324.437 150.9 324.437C100.6 324.437 50.3 324.437 25.15 324.437H0V91.0374Z" fill="#E9C3FF"/>
<path d="M1509 1376.4L1483.85 1402.29C1458.7 1428.67 1408.4 1479.73 1358.1 1454.2C1307.8 1428.67 1257.5 1324.13 1207.2 1259.7C1156.9 1195.27 1106.6 1168.53 1056.3 1175.46C1006 1181.9 955.7 1220.8 905.4 1220.8C855.1 1220.8 804.8 1181.9 754.5 1175.46C704.2 1168.53 653.9 1195.27 603.6 1214.36C553.3 1234.17 503 1246.33 452.7 1292.16C402.4 1337.5 352.1 1415.3 301.8 1447.76C251.5 1479.73 201.2 1467.57 150.9 1447.76C100.6 1428.67 50.3 1401.93 25.15 1389.41L2.28882e-05 1376.4V1143H25.15C50.3 1143 100.6 1143 150.9 1143C201.2 1143 251.5 1143 301.8 1143C352.1 1143 402.4 1143 452.7 1143C503 1143 553.3 1143 603.6 1143C653.9 1143 704.2 1143 754.5 1143C804.8 1143 855.1 1143 905.4 1143C955.7 1143 1006 1143 1056.3 1143C1106.6 1143 1156.9 1143 1207.2 1143C1257.5 1143 1307.8 1143 1358.1 1143C1408.4 1143 1458.7 1143 1483.85 1143H1509V1376.4Z" fill="#E9C3FF"/>
<rect y="324" width="1509" height="819" fill="#E9C3FF"/>
</svg>
