<svg width="64" height="65" viewBox="0 0 64 65" fill="none" xmlns="http://www.w3.org/2000/svg">
<path d="M32.0003 1.30078C15.0339 1.30078 1.28027 15.2693 1.28027 32.5008C1.28027 49.7323 15.0339 63.7008 32.0003 63.7008C48.9667 63.7008 62.7203 49.7323 62.7203 32.5008C62.7203 15.2693 48.9667 1.30078 32.0003 1.30078ZM24.4803 45.4325H18.2595V25.1005H24.4803V45.4325ZM21.3315 22.6045C19.3667 22.6045 18.0963 21.1908 18.0963 19.4423C18.0963 17.658 19.4051 16.2865 21.4115 16.2865C23.4179 16.2865 24.6467 17.658 24.6851 19.4423C24.6851 21.1908 23.4179 22.6045 21.3315 22.6045ZM47.2003 45.4325H40.9795V34.1648C40.9795 31.542 40.0771 29.761 37.8275 29.761C36.1091 29.761 35.0883 30.9668 34.6371 32.127C34.4707 32.5398 34.4291 33.1248 34.4291 33.7065V45.4293H28.2051V31.5843C28.2051 29.046 28.1251 26.9238 28.0419 25.0973H33.4467L33.7315 27.9215H33.8563C34.6755 26.5955 36.6819 24.639 40.0387 24.639C44.1315 24.639 47.2003 27.4243 47.2003 33.4108V45.4325Z" fill="#581082"/>
</svg>
