<svg width="65" height="65" viewBox="0 0 65 65" fill="none" xmlns="http://www.w3.org/2000/svg">
<path d="M32.5 0C14.5507 0 0 14.5507 0 32.5C0 50.4493 14.5507 65 32.5 65C50.4493 65 65 50.4493 65 32.5C65 14.5507 50.4493 0 32.5 0ZM15.8692 19.9277H49.1308V24.6052L32.5 34.0869L15.8692 24.6051V19.9277ZM15.8692 27.5965L24.3393 32.4247L15.8692 41.3034V27.5965ZM49.1308 27.5965V41.3034L40.6607 32.4246L49.1308 27.5965ZM26.6681 33.7537L32.5 37.0782L38.3319 33.7536L49.1308 45.0723H15.8692L26.6681 33.7537Z" fill="#581082"/>
</svg>
