<svg width="1514" height="1516" viewBox="0 0 1514 1516" fill="none" xmlns="http://www.w3.org/2000/svg">
<rect x="3" width="1506" height="1217" fill="#7ED7C3"/>
<path d="M0 224L19.425 192C38.745 160 77.7 96 116.55 69.3C155.085 43 194.25 53 233.1 53.3C271.425 53 309.75 43 348.6 74.7C387.66 107 426.3 181 465.15 213.3C504 245 542.85 235 581.7 208C620.34 181 659.4 139 698.25 133.3C736.575 128 774.9 160 813.75 149.3C852.915 139 891.45 85 930.3 74.7C969.255 64 1008 96 1046.85 117.3C1085.49 139 1124.55 149 1163.4 154.7C1201.83 160 1241.1 160 1278.9 154.7C1318.17 149 1356.6 139 1395.45 154.7C1434.51 171 1473.15 213 1493.1 234.7L1512 256V0H1492.58C1473.26 0 1434.3 0 1395.45 0C1356.92 0 1317.75 0 1278.9 0C1240.58 0 1202.25 0 1163.4 0C1124.34 0 1085.7 0 1046.85 0C1008 0 969.15 0 930.3 0C891.66 0 852.6 0 813.75 0C775.425 0 737.1 0 698.25 0C659.085 0 620.55 0 581.7 0C542.745 0 504 0 465.15 0C426.51 0 387.45 0 348.6 0C310.17 0 270.9 0 233.1 0C193.83 0 155.4 0 116.55 0C77.49 0 38.85 0 18.9 0H0V224Z" fill="#F3FEFB"/>
<path d="M1514 1420L1494.58 1388C1475.26 1356 1436.3 1292 1397.45 1265.3C1358.92 1239 1319.75 1249 1280.9 1249.3C1242.58 1249 1204.25 1239 1165.4 1270.7C1126.34 1303 1087.7 1377 1048.85 1409.3C1010 1441 971.15 1431 932.3 1404C893.66 1377 854.6 1335 815.75 1329.3C777.425 1324 739.1 1356 700.25 1345.3C661.085 1335 622.55 1281 583.7 1270.7C544.745 1260 506 1292 467.15 1313.3C428.51 1335 389.45 1345 350.6 1350.7C312.17 1356 272.9 1356 235.1 1350.7C195.83 1345 157.4 1335 118.55 1350.7C79.4901 1367 40.8501 1409 20.9001 1430.7L2.00007 1452V1196H21.4251C40.7451 1196 79.7001 1196 118.55 1196C157.085 1196 196.25 1196 235.1 1196C273.425 1196 311.75 1196 350.6 1196C389.66 1196 428.3 1196 467.15 1196C506 1196 544.85 1196 583.7 1196C622.34 1196 661.4 1196 700.25 1196C738.575 1196 776.9 1196 815.75 1196C854.915 1196 893.45 1196 932.3 1196C971.255 1196 1010 1196 1048.85 1196C1087.49 1196 1126.55 1196 1165.4 1196C1203.83 1196 1243.1 1196 1280.9 1196C1320.17 1196 1358.6 1196 1397.45 1196C1436.51 1196 1475.15 1196 1495.1 1196H1514V1420Z" fill="#7ED7C3"/>
</svg>
